# xmcd
#
# Track frame offsets: 
#        150
#        15403
#        29421
#        43592
#        57452
#        75060
#        87706
#        103348
#
# Disc length: 1656 seconds
#
# Revision: 0
# Processed by: cddbd v1.5.2PL0 Copyright (c) Steve Scherf et al.
# Submitted via: ExactAudioCopy v1.0b3
#
DISCID=5c067608
DTITLE=C-Doc - White LP
DYEAR=2017
DGENRE=Hip-Hop
TTITLE0=Jack Move
TTITLE1=Please Gimme Buxx
TTITLE2=Gary Coleman
TTITLE3=200% For Free
TTITLE4=To The Right Beat
TTITLE5=32 Bars
TTITLE6=Thorn Run Road
TTITLE7=Insomnia
EXTD=
EXTT0=
EXTT1=
EXTT2=
EXTT3=
EXTT4=
EXTT5=
EXTT6=
EXTT7=
PLAYORDER=
